#!OML:ASF F:\VICON\USERDATA\INSTALL\rory3\rory3.ASF
:FULLY-SPECIFIED
:DEGREES
99
root 0.6440613661921404 17.752381928282233 45.30708024861404 -1.8672907578587934 -0.5344044173411651 3.2357240454941683
lfemur 7.952800670646841 -3.0721573033718053 -28.526545319536957
ltibia 14.572037969899657
lfoot -15.968332426570544 2.0583765527229625
ltoes -1.1950806805492697
rfemur -30.15366977807891 3.6111372577553755 16.441071103285864
rtibia 28.229536619080985
rfoot -9.255453242015374 -15.8426580093611
rtoes -0.7897377038648554
lowerback 9.498938138301579 -0.7588822091982154 -4.486854462650002
upperback 0.6417279748061526 -1.4692266065141588 0.7841503510461382
thorax -4.609174988016574 -0.6313950206506218 3.3544776664262814
lowerneck -16.466035371905537 -2.7499529363976722 -3.5003981141465528
upperneck 20.25277562469779 -3.4908457875711276 2.1788284122526176
head 9.138356425116765 -1.6527003912683702 0.8447550474260401
lclavicle -2.228293625180717e-15 6.524827098049127e-16
lhumerus -20.900927173500733 -5.290837534007675 82.22805186091429
lradius 27.440246324151577
lwrist 7.855203395204387
lhand -27.87222844146004 22.198849547873884
lfingers 7.12502
lthumb -1.2625353490526603 52.170961423051224
rclavicle -2.228293625180717e-15 6.524827098049129e-16
rhumerus -30.178846216197943 -17.29729824225023 -80.38193735482632
rradius 25.76226439486038
rwrist 5.409308594142507
rhand -16.693332593202747 23.308775048709098
rfingers 7.12502
rthumb 9.531200808637113 -6.452197787482126
100
root 0.5636977561372369 17.696197660912592 45.94544100137699 -1.473285448152037 0.03331419452079398 3.4709840555973686
lfemur 11.206100459576682 -3.1573710218116733 -28.613997873586342
ltibia 12.276532388632472
lfoot -15.912189436348275 1.2431678878665082
ltoes -3.739490632798291
rfemur -29.72590654059734 5.1962704354942595 15.468450563734146
rtibia 20.766302209487215
rfoot -9.689718423143214 -16.69406347781627
rtoes -2.251535437151604
lowerback 9.260817943126504 -1.0212549405288356 -4.991944791330449
upperback 0.5834734401758878 -1.8580534180744372 0.8679949399469002
thorax -4.517362355057157 -0.8154381418823886 3.7217613435410626
lowerneck -16.64167507438385 -2.770730796812937 -3.543320799868158
upperneck 20.288403878791602 -3.5186400311976462 2.2410975540849685
head 9.179688346619132 -1.6625240429082284 0.860406131918795
lclavicle -2.3102802464167197e-15 5.775839511908298e-16
lhumerus -19.447386785861596 -5.974608681864183 82.0254796116597
lradius 28.62083509210527
lwrist 8.359221211951144
lhand -28.156087966482122 22.089366532576175
lfingers 7.12502
lthumb -1.5366936983680068 52.057573461106166
rclavicle -2.3102802464167197e-15 5.775839511908298e-16
rhumerus -30.683822371707677 -18.43238277502901 -79.81578042236053
rradius 24.821082233071525
rwrist 6.369666066626736
rhand -16.73610226621455 24.08808371311011
rfingers 7.12502
rthumb 9.48993768147835 -5.675962868371095
101
root 0.4751976701526385 17.62840402749421 46.04779636727573 -1.279754699834864 0.3451408809430543 3.3159743650245033
lfemur 13.320063266163007 -3.725189555520239 -28.523265746970033
ltibia 11.508041496545903
lfoot -15.85179337219219 0.2905086251264182
ltoes -7.736913556868524
rfemur -29.722483712182513 5.765974990442606 15.35444217352866
rtibia 17.559779237672572
rfoot -9.99291008871736 -15.656201270998121
rtoes -3.326509565735122
lowerback 9.155212155061681 -1.2337860425948843 -5.233460773833436
upperback 0.5010965109489975 -2.1555288101093226 1.0101383562682567
thorax -4.516671798878414 -0.9550359997814464 3.9292546568465863
lowerneck -16.807283754211333 -2.779081617161261 -3.543064050753295
upperneck 20.353092726606807 -3.527959861194117 2.2029656129374446
head 9.2250771601075 -1.6668427527459002 0.8435510003278098
lclavicle -2.687108711254971e-15 2.3073845263169723e-16
lhumerus -18.709482610854714 -6.404082846931531 81.97629238380958
lradius 29.454502160856016
lwrist 8.421906271645051
lhand -28.69672705661901 21.55893831958492
lfingers 7.12502
lthumb -2.0588245170954727 51.51924900196398
rclavicle -2.687108711254971e-15 2.3073845263169723e-16
rhumerus -31.347140081332565 -19.954038734066497 -79.01814531662183
rradius 23.772060356018162
rwrist 7.35943885157736
rhand -16.979451186799412 24.155474813195458
rfingers 7.12502
rthumb 9.255129436355675 -5.618704112665876
102
root 0.40321886202111473 17.582815931787255 47.279556714524965 -1.2549163293059382 0.5925557774397756 3.0272637290748112
lfemur 15.339828185752605 -4.449454701720037 -27.822810521600033
ltibia 13.691180244166592
lfoot -14.563751904487681 -0.5708041086606449
ltoes -11.449326643044335
rfemur -29.19516257534571 5.620075973642437 16.616195719734343
rtibia 19.09958051191051
rfoot -8.49621079225678 -12.95903354206082
rtoes -2.8846962753241683
lowerback 9.147125298362422 -1.2960690667004444 -4.890464239670363
upperback 0.47085100223070087 -2.1943843954021376 1.278726489642727
thorax -4.513390704653266 -0.9781154781573718 4.122075560515361
lowerneck -16.785575567238435 -2.7242959320630473 -3.4649808499072057
upperneck 20.40849396448872 -3.445942103742321 2.0856296727147865
head 9.236056596031395 -1.6357217821895724 0.8145955472433043
lclavicle -2.1753685016319536e-15 7.023986557339418e-16
lhumerus -18.201288568972444 -6.071152293720819 82.0834973547392
lradius 30.22317510974733
lwrist 8.508816230292508
lhand -29.50174586587439 20.70931422303964
lfingers 7.12502
lthumb -2.8362459628478733 50.66397655100285
rclavicle -2.1753685016319536e-15 7.023986557339418e-16
rhumerus -31.874369481015975 -21.377317115609063 -77.93190251202165
rradius 22.88244334074373
rwrist 8.869642725988955
rhand -17.162894462708945 24.04348720536585
rfingers 7.12502
rthumb 9.07812496213883 -5.7407016367096535
103
root 0.3506004117304777 17.57050890923431 48.24315197054748 -1.453563362838735 0.5188944024535225 2.315729676009591
lfemur 15.962258923977554 -5.220129982617154 -26.804966528692095
ltibia 17.78293439356811
lfoot -11.659208281732667 -2.1056566537969834
ltoes -14.354298469110574
rfemur -28.565010633331685 5.168178742772033 18.444291673976974
rtibia 22.903655748664274
rfoot -6.521007074549251 -9.634440271291913
rtoes -1.3347799768184436
lowerback 9.184597598301657 -1.3000624010482662 -4.119508558432453
upperback 0.4803158871127512 -2.106997744634548 1.598054094026977
thorax -4.529638562534844 -0.9475802876638728 4.0875420428931
lowerneck -16.820098354923186 -2.6502073307406677 -3.3701933308836054
upperneck 20.595590015676148 -3.314479218114696 1.8069368022464465
head 9.296776452602433 -1.5939966612616419 0.7444031746363702
lclavicle -1.820898930897533e-15 1.029330698234871e-15
lhumerus -18.42965609488679 -5.130613897783344 82.30603304521364
lradius 30.67643691446685
lwrist 8.547148214995218
lhand -30.022784275360998 20.098402035212704
lfingers 7.12502
lthumb -3.3394180100615483 50.048848068495374
rclavicle -1.820898930897533e-15 1.029330698234871e-15
rhumerus -32.38743854496742 -22.967681339426154 -76.7693830625461
rradius 21.990965121595497
rwrist 10.618659490451694
rhand -17.196870450839096 24.104066261943505
rfingers 7.12502
rthumb 9.045358484305083 -5.684165943464539
